<svg id="Layer_1" data-name="Layer 1" xmlns="http://www.w3.org/2000/svg" viewBox="0 0 166 34.85"><defs><style>.cls-1{fill:#0093d1;}.cls-2{fill:#8dc63f;}.cls-3{fill:#e1144d;}</style></defs><title>123reg-logo</title><path class="cls-1" d="M34.71,0V34.85H67.44V0H34.71ZM58,27.18H44.13V23.69l7.36-6.29c1.39-1.2,2.31-2.27,2.31-3.56a2.71,2.71,0,0,0-2.9-2.77A2.75,2.75,0,0,0,48,13.87H44.16C44.24,10.21,47,7.66,50.9,7.66s6.71,2.51,6.71,6.11c0,2.33-1.65,4-4,6.06l-4.42,3.94H58v3.4Z" transform="translate(0)"/><path class="cls-1" d="M136,15.64a2.47,2.47,0,0,0-2.37,1.47,3.92,3.92,0,0,0-.33,1.53h5.4a3.92,3.92,0,0,0-.33-1.53A2.47,2.47,0,0,0,136,15.64Z" transform="translate(0)"/><path class="cls-2" d="M69.42,0V34.85h32.92V0H69.42ZM85.89,27.39c-3.19,0-6.18-1.68-6.24-5.77h3.57a2.65,2.65,0,0,0,5.3-.17,2.51,2.51,0,0,0-2.75-2.69H85.26V15.65h0.52a2.27,2.27,0,0,0,2.47-2.48A2.4,2.4,0,1,0,83.45,13v0.59H79.88V13c0.08-3.49,2.69-5.58,6-5.58,3.46,0,6,2.31,6,5.61a4.18,4.18,0,0,1-2.25,4,4.67,4.67,0,0,1,2.53,4.45C92.1,25.44,89.24,27.39,85.89,27.39Z" transform="translate(0)"/><path class="cls-1" d="M150.34,16c-2.19,0-2.42,1.57-2.42,3.54s0.23,3.63,2.42,3.63,2.45-1.66,2.45-3.63S152.53,16,150.34,16Z" transform="translate(0)"/><path class="cls-1" d="M104.31,0V34.85H166V0H104.31Zm9.51,7.4h6.4v3.41h-2.58v2.46h-3.82V7.4ZM124.22,27l-3.82-7.82h-2.75V27h-3.82V16h7.43A2.55,2.55,0,0,0,124,13.4a2.49,2.49,0,0,0-.82-1.92V7.58a5.78,5.78,0,0,1,4.64,5.82,5.28,5.28,0,0,1-3.58,5.15L128.64,27h-4.43Zm18-5.93h-8.89a2.93,2.93,0,0,0,3.11,3.17,3.93,3.93,0,0,0,3.22-1.34l2.15,2.1a6.76,6.76,0,0,1-5.4,2.24c-3.35,0-6.57-1.53-6.57-7.29,0-4.64,2.51-7.26,6.19-7.26,4,0,6.19,2.89,6.19,6.79v1.58Zm14.33,4.79c0,3.57-2.2,6.17-6.7,6.17h-3.52V28.9h3.52a2.82,2.82,0,0,0,3-3.1V25a4.35,4.35,0,0,1-3.53,1.48,4.94,4.94,0,0,1-3.53-1.31c-1.4-1.4-1.51-3.06-1.51-5.66s0.11-4.16,1.51-5.56a5,5,0,0,1,3.56-1.31,4.35,4.35,0,0,1,3.62,1.57v-1.1h3.59V25.86Z" transform="translate(0)"/><path class="cls-3" d="M0,0V34.85H32.73V0H0ZM18.58,26.93H14.87V11.24h-2.5V7.92h6.21v19Z" transform="translate(0)"/></svg>